<svg xmlns="http://www.w3.org/2000/svg" width="881.11829mm" height="100mm" viewBox="0 0 881.11829 100"><path d="M86.013 164.69h4.464v-100h-4.464z" style="fill:#231f20;fill-opacity:1;fill-rule:nonzero;stroke:none;stroke-width:2.05419" transform="translate(362.166 -64.69)"/><path d="M0 0v10.661h-22.284V7.524h18.073V0h-7.459v5.062h-4.196V0h-9.386v-3.148H3.111V0Z" style="fill:#231f20;fill-opacity:1;fill-rule:nonzero;stroke:none" transform="matrix(2.05419 0 0 -2.05419 807.608 27.083)"/><path d="M0 0c-2.71 0-5.384.84-6.667 2.082-.497.49-.755 1.012-.755 1.545 0 .538.258 1.055.759 1.55C-5.375 6.421-2.701 7.263 0 7.263c2.697 0 5.371-.842 6.663-2.086.501-.495.763-1.012.763-1.55C7.426 1.696 3.948 0 0 0m0 10.403c-6.441 0-11.686-3.035-11.686-6.776 0-1.199.534-2.378 1.567-3.406C-8.036-1.866-4.16-3.158 0-3.158S8.036-1.866 10.114.221c1.04 1.028 1.581 2.207 1.581 3.406 0 1.199-.541 2.383-1.581 3.407C8.036 9.125 4.16 10.403 0 10.403" style="fill:#231f20;fill-opacity:1;fill-rule:nonzero;stroke:none" transform="matrix(2.05419 0 0 -2.05419 784.752 58.53)"/><path d="M0 0c-2.438 0-4.807.764-6.03 1.934-.538.528-.823 1.097-.823 1.689 0 .599.289 1.172.828 1.704C-4.802 6.507-2.438 7.252 0 7.252c2.439 0 4.802-.745 6.017-1.925.551-.532.827-1.105.827-1.704C6.844 1.661 3.713 0 0 0m0 10.403c-6.116 0-11.08-3.044-11.08-6.78 0-1.253.568-2.479 1.621-3.544C-7.431-1.953-3.895-3.157 0-3.157c3.89 0 7.427 1.204 9.464 3.236 1.053 1.065 1.617 2.291 1.617 3.544 0 1.26-.564 2.491-1.617 3.55C7.427 9.2 3.89 10.403 0 10.403" style="fill:#231f20;fill-opacity:1;fill-rule:nonzero;stroke:none" transform="matrix(2.05419 0 0 -2.05419 651.305 60.405)"/><path d="M0 0v5.067h-4.205v-15.842H0v7.636h4.667V0Z" style="fill:#231f20;fill-opacity:1;fill-rule:nonzero;stroke:none" transform="matrix(2.05419 0 0 -2.05419 672.75 16.217)"/><path d="M0 0c0 1.1.537 2.157 1.45 2.869.727.555 1.63.86 2.574.86.935 0 1.857-.305 2.576-.86C7.525 2.157 8.05 1.1 8.05 0c0-2.068-1.808-3.736-4.026-3.736a4.23 4.23 0 0 0-2.574.861C.537-2.161 0-1.116 0 0m9.933-4.711c1.419 1.239 2.191 2.878 2.191 4.592 0 1.707-.772 3.34-2.191 4.589-.049.043-.089.07-.131.111h3.018v3.128H6.369v2.606H1.672V7.709h-6.433V4.581h3.017C-3.189 3.363-4.08 1.712-4.08-.119c0-1.714.778-3.353 2.2-4.592 1.55-1.363 3.647-2.112 5.904-2.112 2.26 0 4.36.749 5.909 2.112" style="fill:#231f20;fill-opacity:1;fill-rule:nonzero;stroke:none" transform="matrix(2.05419 0 0 -2.05419 628.906 23.946)"/><path d="M0 0v5.064h-4.196v-19.465H0v11.246h4.671V0Z" style="fill:#231f20;fill-opacity:1;fill-rule:nonzero;stroke:none" transform="matrix(2.05419 0 0 -2.05419 600.881 15.687)"/><path d="M0 0v-4.271c0-5.019-4.424-8.484-6.903-8.994l-.136-.027v-3.097l.176.01c2.648.185 6.717 2.152 9.176 5.425 2.46-3.273 6.541-5.24 9.169-5.425l.181-.01v3.097l-.132.027c-2.474.51-6.91 3.975-6.91 8.994V0H0" style="fill:#231f20;fill-opacity:1;fill-rule:nonzero;stroke:none" transform="matrix(2.05419 0 0 -2.05419 562.921 5.313)"/><path d="M0 0v6.887h-4.196v-7.12c0-.905.27-1.637.771-2.145.503-.506 1.247-.768 2.142-.768h18.828V0Z" style="fill:#231f20;fill-opacity:1;fill-rule:nonzero;stroke:none" transform="matrix(2.05419 0 0 -2.05419 564.859 57.894)"/><path d="M337.448 77.724h15.425v17.863h-15.425zm24.053 18.307V71.296h-32.646v24.735c-.028 3.73 2.2 5.971 5.958 6h20.739c3.749-.029 5.977-2.27 5.949-6" style="fill:#231f20;fill-opacity:1;fill-rule:nonzero;stroke:none;stroke-width:2.05419" transform="translate(362.166 -64.69)"/><path d="M0 0v5.064h-4.202v-19.465H0v11.246h4.671V0Z" style="fill:#231f20;fill-opacity:1;fill-rule:nonzero;stroke:none" transform="matrix(2.05419 0 0 -2.05419 740.314 15.687)"/><path d="M0 0v6.887h-4.196v-7.12c0-.905.275-1.637.776-2.145.497-.506 1.242-.768 2.137-.768h18.9V0Z" style="fill:#231f20;fill-opacity:1;fill-rule:nonzero;stroke:none" transform="matrix(2.05419 0 0 -2.05419 704.086 57.894)"/><path d="M0 0v-3.142h12.062v-9.009h4.196v9.009h12.093V0Z" style="fill:#231f20;fill-opacity:1;fill-rule:nonzero;stroke:none" transform="matrix(2.05419 0 0 -2.05419 484.64 38.998)"/><path d="M135.585 84.835h31.978v6.598h-31.978zm31.978-14.45v7.974h-31.978v-7.975h-8.6v21.577c-.011 1.82.527 3.343 1.556 4.386 1.013 1.035 2.553 1.588 4.382 1.604h37.312c1.847-.016 3.377-.569 4.417-1.604 1.01-1.043 1.55-2.566 1.54-4.386V70.384Z" style="fill:#231f20;fill-opacity:1;fill-rule:nonzero;stroke:none;stroke-width:2.05419" transform="translate(362.166 -64.69)"/><path d="M0 0v7.562h-4.63V0c0-5.053-4.142-9.446-6.939-10.81l-.085-.052v-3.295l.207.056c2.959.847 6.997 3.429 9.138 6.794 2.128-3.365 6.175-5.947 9.129-6.794l.208-.056v3.295l-.09.052C4.138-9.446 0-5.053 0 0" style="fill:#231f20;fill-opacity:1;fill-rule:nonzero;stroke:none" transform="matrix(2.05419 0 0 -2.05419 842.526 20.943)"/><path d="M0 0v7.456h-4.191v-28.758H0v18.16h4.676V0Z" style="fill:#231f20;fill-opacity:1;fill-rule:nonzero;stroke:none" transform="matrix(2.05419 0 0 -2.05419 871.513 20.6)"/><path d="M0 0c0 .321-.054.573-.186.75-.116.172-.325.306-.623.394a3.948 3.948 0 0 1-.836.096H-3.324v-2.53h.189c.728 0 1.252 0 1.563.006.317.009.605.072.873.184.264.111.459.262.546.453C-.041-.458 0-.243 0 0m-.61 4.12c0 .167-.04.337-.126.508-.081.172-.231.296-.443.379a2.125 2.125 0 0 1-.71.118c-.279.009-.676.009-1.187.009h-.248V2.977h.41c.407 0 .755.005 1.049.018.289.009.514.057.686.139.231.103.383.236.456.403.077.17.113.361.113.583M2.688-.031c0-.486-.095-.922-.29-1.305a2.705 2.705 0 0 0-.808-.949A3.595 3.595 0 0 0 .28-2.92c-.478-.13-1.08-.19-1.807-.19h-4.391V6.957h3.912c.813 0 1.401-.023 1.78-.079a3.606 3.606 0 0 0 1.121-.357c.384-.194.668-.458.853-.786.19-.323.284-.702.284-1.116 0-.495-.131-.921-.383-1.291-.257-.373-.624-.667-1.088-.874v-.055c.655-.127 1.169-.4 1.553-.81.385-.412.574-.949.574-1.62" style="fill:#231f20;fill-opacity:1;fill-rule:nonzero;stroke:none" transform="matrix(2.05419 0 0 -2.05419 499.737 87.301)"/><path d="M0 0c0-1.244-.38-2.192-1.134-2.858-.759-.663-1.884-.993-3.355-.993-1.474 0-2.598.33-3.353.993-.754.666-1.135 1.614-1.135 2.849V6.42h2.598V.124c0-.701.15-1.229.44-1.571.302-.344.78-.511 1.45-.511.655 0 1.133.158 1.44.495.302.325.451.854.451 1.587V6.42H0Z" style="fill:#231f20;fill-opacity:1;fill-rule:nonzero;stroke:none" transform="matrix(2.05419 0 0 -2.05419 526.285 86.198)"/><path d="M0 0c0-.996-.43-1.805-1.271-2.431-.838-.621-1.987-.93-3.422-.93-.836 0-1.564.075-2.179.218-.626.143-1.205.333-1.748.558v2.413h.285a5.94 5.94 0 0 1 1.799-.98 5.772 5.772 0 0 1 1.915-.343c.152 0 .355.014.619.041.252.024.465.07.622.135.2.079.367.185.492.305.127.124.195.304.195.541 0 .227-.099.416-.28.579-.189.155-.461.283-.822.366-.374.089-.777.18-1.196.257a8.565 8.565 0 0 0-1.184.303c-.841.279-1.45.649-1.821 1.12-.37.477-.555 1.065-.555 1.766 0 .94.415 1.713 1.26 2.302.84.601 1.915.902 3.238.902.66 0 1.311-.07 1.96-.2a9.233 9.233 0 0 0 1.677-.48v-2.33h-.28c-.402.336-.894.613-1.486.843a4.91 4.91 0 0 1-1.784.339c-.218 0-.43-.014-.642-.044a2.428 2.428 0 0 1-.62-.176 1.236 1.236 0 0 1-.446-.318.707.707 0 0 1-.19-.489c0-.27.104-.477.302-.617.209-.142.588-.276 1.148-.388.366-.075.719-.158 1.061-.227.344-.074.706-.171 1.093-.301.769-.255 1.338-.593 1.704-1.035C-.19 1.263 0 .698 0 0" style="fill:#231f20;fill-opacity:1;fill-rule:nonzero;stroke:none" transform="matrix(2.05419 0 0 -2.05419 546.552 87.203)"/><path d="m0 0-1.238 3.587L-2.471 0Zm4.017-3.878H1.324l-.71 2.051h-3.699l-.709-2.051h-2.625l3.723 10.067h2.99z" style="fill:#231f20;fill-opacity:1;fill-rule:nonzero;stroke:none" transform="matrix(2.05419 0 0 -2.05419 559.95 85.724)"/><path d="M0 0h-2.513l-4.276 6.909V0h-2.395v10.067h3.113l3.676-5.765v5.765H0Z" style="fill:#231f20;fill-opacity:1;fill-rule:nonzero;stroke:none" transform="matrix(2.05419 0 0 -2.05419 588.94 93.69)"/><path d="M0 0a1.2 1.2 0 0 1-.23.734 1.318 1.318 0 0 1-.538.427 2.555 2.555 0 0 1-.8.176c-.258.013-.605.018-1.03.018h-.451v-3.009h.749c.444 0 .814.027 1.099.085.288.051.528.161.727.322.167.144.284.315.37.516C-.036-.534 0-.292 0 0m2.692.072c0-.452-.077-.892-.234-1.323a2.935 2.935 0 0 0-.687-1.087 4.042 4.042 0 0 0-1.346-.899c-.497-.203-1.112-.305-1.853-.305h-1.621v-3.282H-5.65V3.243h4.291c.64 0 1.177-.052 1.626-.163a3.655 3.655 0 0 0 1.169-.498c.403-.265.718-.606.931-1.016.216-.419.325-.911.325-1.494" style="fill:#231f20;fill-opacity:1;fill-rule:nonzero;stroke:none" transform="matrix(2.05419 0 0 -2.05419 616.926 79.672)"/><path d="M0 0c.253.31.441.665.556 1.086.131.419.185.908.185 1.473 0 .605-.069 1.12-.209 1.545-.139.426-.325.767-.55 1.027-.23.273-.488.468-.795.598a2.538 2.538 0 0 1-.931.179c-.334 0-.646-.061-.931-.179a2.144 2.144 0 0 1-.807-.58c-.222-.251-.408-.605-.552-1.049-.144-.441-.213-.962-.213-1.545 0-.604.069-1.117.209-1.534.135-.425.315-.769.541-1.033.23-.27.493-.467.795-.592.299-.127.619-.185.958-.185.325 0 .65.058.953.19.303.131.564.326.791.599m3.433 2.559c0-1.616-.461-2.884-1.378-3.828-.922-.94-2.187-1.413-3.812-1.413-1.613 0-2.883.473-3.799 1.413-.918.944-1.379 2.212-1.379 3.828 0 1.61.461 2.891 1.379 3.831.916.939 2.186 1.411 3.799 1.411 1.616 0 2.877-.472 3.807-1.411.918-.94 1.383-2.221 1.383-3.831" style="fill:#231f20;fill-opacity:1;fill-rule:nonzero;stroke:none" transform="matrix(2.05419 0 0 -2.05419 638.872 88.599)"/><path d="M0 0c0 .257-.05.477-.153.659-.105.18-.285.321-.537.428-.177.07-.38.115-.62.132-.23.016-.505.02-.818.02h-.944v-2.734h.801c.419 0 .762.027 1.047.067.28.039.515.131.704.279.182.139.312.295.398.467C-.031-.511 0-.284 0 0m4.062-7.005H.881L-1.87-3.312h-1.202v-3.693h-2.597V3.063h4.368c.602 0 1.112-.033 1.54-.103.43-.064.84-.212 1.211-.435.379-.226.682-.518.907-.874.222-.361.335-.806.335-1.35 0-.746-.171-1.35-.52-1.821-.347-.472-.844-.861-1.481-1.175Z" style="fill:#231f20;fill-opacity:1;fill-rule:nonzero;stroke:none" transform="matrix(2.05419 0 0 -2.05419 660.38 79.301)"/><path d="M0 0h-3.141v-8.113h-2.606V0h-3.135v1.954H0Z" style="fill:#231f20;fill-opacity:1;fill-rule:nonzero;stroke:none" transform="matrix(2.05419 0 0 -2.05419 685.836 77.024)"/><path d="m0 0-1.236 3.587L-2.475 0Zm4.017-3.878H1.315l-.7 2.051H-3.09l-.704-2.051h-2.625l3.718 10.067H.29Z" style="fill:#231f20;fill-opacity:1;fill-rule:nonzero;stroke:none" transform="matrix(2.05419 0 0 -2.05419 710.72 85.724)"/><path d="M0 0c0-1.244-.375-2.192-1.138-2.858-.758-.663-1.875-.993-3.356-.993-1.469 0-2.594.33-3.344.993-.758.666-1.134 1.614-1.134 2.849V6.42h2.594V.124c0-.701.149-1.229.446-1.571.294-.344.774-.511 1.438-.511.655 0 1.138.158 1.441.495.307.325.459.854.459 1.587V6.42H0Z" style="fill:#231f20;fill-opacity:1;fill-rule:nonzero;stroke:none" transform="matrix(2.05419 0 0 -2.05419 737.353 86.198)"/><path d="M0 0h-3.148v-8.113h-2.594V0h-3.139v1.954H0Z" style="fill:#231f20;fill-opacity:1;fill-rule:nonzero;stroke:none" transform="matrix(2.05419 0 0 -2.05419 757.74 77.024)"/><path d="M0 0h-2.598v4.421h-3.848V0h-2.598v10.067h2.598V6.379h3.848v3.688H0Z" style="fill:#231f20;fill-opacity:1;fill-rule:nonzero;stroke:none" transform="matrix(2.05419 0 0 -2.05419 778.35 93.69)"/><path d="M0 0c.252.31.438.665.56 1.086.127.419.184.908.184 1.473 0 .605-.067 1.12-.212 1.545-.14.426-.32.767-.551 1.027-.23.273-.488.468-.791.598a2.526 2.526 0 0 1-1.87 0 2.166 2.166 0 0 1-.799-.58c-.226-.251-.417-.605-.56-1.049a5.28 5.28 0 0 1-.208-1.545c0-.604.068-1.117.208-1.534.135-.425.32-.769.547-1.033.224-.27.488-.467.795-.592.298-.127.613-.185.953-.185.33 0 .649.058.949.19.307.131.565.326.795.599m3.438 2.559c0-1.616-.461-2.884-1.379-3.828-.926-.94-2.191-1.413-3.813-1.413-1.617 0-2.886.473-3.803 1.413-.918.944-1.374 2.212-1.374 3.828 0 1.61.456 2.891 1.374 3.831.917.939 2.186 1.411 3.803 1.411 1.614 0 2.874-.472 3.805-1.411.921-.94 1.387-2.221 1.387-3.831" style="fill:#231f20;fill-opacity:1;fill-rule:nonzero;stroke:none" transform="matrix(2.05419 0 0 -2.05419 794.543 88.599)"/><path d="M0 0c0 .257-.054.477-.157.659-.104.18-.285.321-.534.428-.18.07-.388.115-.619.132-.24.016-.51.02-.822.02h-.948v-2.734h.805c.41 0 .761.027 1.046.067.277.039.516.131.706.279.175.139.311.295.397.467C-.04-.511 0-.284 0 0m4.048-7.005H.877l-2.746 3.693H-3.08v-3.693h-2.594V3.063h4.369c.596 0 1.116-.033 1.539-.103a3.341 3.341 0 0 0 1.217-.435c.37-.226.677-.518.903-.874.216-.361.334-.806.334-1.35 0-.746-.175-1.35-.519-1.821-.348-.472-.84-.861-1.486-1.175Z" style="fill:#231f20;fill-opacity:1;fill-rule:nonzero;stroke:none" transform="matrix(2.05419 0 0 -2.05419 815.187 79.301)"/><path d="M463.156 158.38h5.327V137.7h-5.327z" style="fill:#231f20;fill-opacity:1;fill-rule:nonzero;stroke:none;stroke-width:2.05419" transform="translate(362.166 -64.69)"/><path d="M0 0h-3.144v-8.113h-2.597V0h-3.144v1.954H0Z" style="fill:#231f20;fill-opacity:1;fill-rule:nonzero;stroke:none" transform="matrix(2.05419 0 0 -2.05419 851.061 77.024)"/><path d="m0 0-3.74-6.173v-3.894h-2.593v3.771L-10.114 0h2.95l2.177-3.883L-2.878 0Z" style="fill:#231f20;fill-opacity:1;fill-rule:nonzero;stroke:none" transform="matrix(2.05419 0 0 -2.05419 873.268 73.01)"/><path d="m0 0 9.142 15.587L18.521 0Zm21.237 24.782H3.127l-25.449-43.378h11.42l5.784 9.866 28.816-.013 5.963-9.853h17.712z" style="fill:#254aa5;fill-opacity:1;fill-rule:nonzero;stroke:none" transform="matrix(2.05419 0 0 -2.05419 261.328 56.191)"/><path d="M0 0c-4.452 0-9.588.388-13.265 1.741v13.36c3.144.427 8.867.912 14.135.675 2.127-.092 13.168-.481 13.257-7.645C14.227.677 4.454 0 0 0m-.775 23.431c-4.644 0-17.715-.486-26.333-1.748v-43.378h13.843v15.694c1.739-.583 11.718-1.553 15.196-1.553 3.49 0 28.464 1.062 28.464 15.877 0 15.878-26.52 15.108-31.17 15.108" style="fill:#254aa5;fill-opacity:1;fill-rule:nonzero;stroke:none" transform="matrix(2.05419 0 0 -2.05419 180.864 49.825)"/><path d="M0 0c2.499.477 6.582.786 12.265.856 4.453.059 15.222.217 15.222-6.397 0-6.529-11.035-6.312-13.168-6.312-2.131 0-9.924.101-14.319.869zm0 18.031c3.018.84 10.892 1.138 12.915 1.138 2.028 0 12.518.156 12.518-6.152 0-5.216-10.183-5.363-14.413-5.363-2.279 0-7.964.075-11.02.429ZM37.132 5.26c2.381 2.002 3.942 4.629 3.942 8.069 0 14.609-25.79 13.319-30.21 13.319-4.413 0-15.666-.627-24.906-2.015v-42.395c8.607-1.256 21.681-1.741 26.325-1.741 4.656 0 31.566-1.457 31.661 14.426.032 4.79-2.868 8.078-6.812 10.337" style="fill:#254aa5;fill-opacity:1;fill-rule:nonzero;stroke:none" transform="matrix(2.05419 0 0 -2.05419 28.845 55.774)"/><path d="M0 0h38.533L19.529-32.396Z" style="fill:#f47216;fill-opacity:1;fill-rule:nonzero;stroke:none" transform="matrix(2.05419 0 0 -2.05419 336.807 5.266)"/></svg>